<svg xmlns="http://www.w3.org/2000/svg" width="48" height="48" viewBox="0 0 48 48">
  <rect width="48" height="48" rx="10" fill="#0f1729"/>
  <!-- Flame -->
  <path d="M24 8c-2 4-6 8-6 14 0 6 3 10 6 12 3-2 6-6 6-12 0-6-4-10-6-14z" fill="#4ade80"/>
  <path d="M24 14c-1.5 3-4 6-4 10 0 4 2 7 4 8 2-1 4-4 4-8 0-4-2.5-7-4-10z" fill="#22c55e"/>
  <!-- Dumbbell -->
  <rect x="12" y="28" width="4" height="8" rx="1.5" fill="white"/>
  <rect x="32" y="28" width="4" height="8" rx="1.5" fill="white"/>
  <rect x="15" y="30" width="18" height="4" rx="1" fill="white"/>
  <rect x="10" y="29" width="4" height="6" rx="1" fill="white"/>
  <rect x="34" y="29" width="4" height="6" rx="1" fill="white"/>
</svg>
